<?xml version="1.0" encoding="UTF-8"?>
<svg width="16px" height="16px" viewBox="0 0 16 16" version="1.1" xmlns="http://www.w3.org/2000/svg" xmlns:xlink="http://www.w3.org/1999/xlink">
    <!-- Generator: Sketch 48.2 (47327) - http://www.bohemiancoding.com/sketch -->
    <title>dribbble</title>
    <desc>Created with Sketch.</desc>
    <defs></defs>
    <g id="UX-University" stroke="none" stroke-width="1" fill="none" fill-rule="evenodd" transform="translate(-705.000000, -2269.000000)">
        <g id="Group-7" transform="translate(264.000000, 2219.000000)" fill="#B8B8B8">
            <g id="Stacked-Group-2" transform="translate(395.000000, 50.000000)">
                <path d="M54,0 C49.6,0 46,3.6 46,8 C46,12.4 49.6,16 54,16 C58.4,16 62,12.4 62,8 C62,3.6 58.4,0 54,0 Z M56.2,7.4 C56.2,7.4 56,6.8 55.9,6.6 C57.6,5.8 58.7,4.9 59.1,4.4 C59.8,5.3 60.2,6.4 60.3,7.6 C59.5,7.4 57.7,7.1 56.2,7.4 Z M55.1,5.1 C54.3,3.7 53.4,2.5 53,1.8 C54.9,1.3 56.6,1.9 57.9,3.1 C57.5,3.6 56.7,4.4 55.1,5.1 Z M51.1,2.5 C51.5,3 52.3,4.2 53.1,5.7 C50.9,6.2 48.9,6.3 48,6.3 C48.4,4.7 49.6,3.3 51.1,2.5 Z M54,7.3 C54.1,7.5 54.2,7.7 54.3,7.8 C51.5,8.7 49.7,11 49.1,11.9 C48.3,10.8 47.8,9.5 47.8,8.2 C48.7,8.1 51.3,8 54,7.3 Z M55,9.5 C55.7,11.5 56.1,13.1 56.2,13.9 C54.1,14.6 51.7,14.2 50.4,13.1 C50.8,12.4 52.1,10.6 55,9.5 Z M57.9,12.9 C57.7,12.1 57.4,10.7 56.8,9 C57.9,8.8 59.5,9 60.1,9.2 C59.8,10.7 59,12 57.9,12.9 Z" id="dribbble"></path>
            </g>
        </g>
    </g>
</svg>