<?xml version="1.0" encoding="UTF-8"?>
<svg width="16px" height="16px" viewBox="0 0 16 16" version="1.1" xmlns="http://www.w3.org/2000/svg" xmlns:xlink="http://www.w3.org/1999/xlink">
    <!-- Generator: Sketch 48.2 (47327) - http://www.bohemiancoding.com/sketch -->
    <title>linkedin</title>
    <desc>Created with Sketch.</desc>
    <defs></defs>
    <g id="UX-University" stroke="none" stroke-width="1" fill="none" fill-rule="evenodd" transform="translate(-679.000000, -2269.000000)">
        <g id="Group-7" transform="translate(264.000000, 2219.000000)" fill="#B8B8B8" fill-rule="nonzero">
            <g id="Stacked-Group-2" transform="translate(395.000000, 50.000000)">
                <path d="M35.2049689,0 L20.6956522,0 C20.2981366,0 20,0.3 20,0.7 L20,15.4 C20,15.7 20.2981366,16 20.6956522,16 L35.3043478,16 C35.7018634,16 36,15.7 36,15.3 L36,0.7 C35.9006211,0.3 35.6024845,0 35.2049689,0 Z M24.6708075,13.6 L22.3850932,13.6 L22.3850932,6 L24.7701863,6 L24.7701863,13.6 L24.6708075,13.6 Z M23.5776398,5 C22.7826087,5 22.1863354,4.3 22.1863354,3.6 C22.1863354,2.8 22.7826087,2.2 23.5776398,2.2 C24.3726708,2.2 24.9689441,2.8 24.9689441,3.6 C24.8695652,4.3 24.2732919,5 23.5776398,5 Z M33.515528,13.6 L31.1304348,13.6 L31.1304348,9.9 C31.1304348,9 31.1304348,7.9 29.9378882,7.9 C28.7453416,7.9 28.5465839,8.9 28.5465839,9.9 L28.5465839,13.7 L26.1614907,13.7 L26.1614907,6 L28.447205,6 L28.447205,7 C28.7453416,6.4 29.5403727,5.8 30.6335404,5.8 C33.0186335,5.8 33.4161491,7.4 33.4161491,9.4 L33.4161491,13.6 L33.515528,13.6 Z" id="linkedin"></path>
            </g>
        </g>
    </g>
</svg>