<?xml version="1.0" encoding="UTF-8"?>
<svg width="133px" height="107px" viewBox="0 0 133 107" version="1.1" xmlns="http://www.w3.org/2000/svg" xmlns:xlink="http://www.w3.org/1999/xlink">
    <!-- Generator: Sketch 48.2 (47327) - http://www.bohemiancoding.com/sketch -->
    <title>Group 4</title>
    <desc>Created with Sketch.</desc>
    <defs>
        <linearGradient x1="58.7493982%" y1="22.7652546%" x2="50.13235%" y2="98.831689%" id="linearGradient-1">
            <stop stop-color="#FF6D4B" offset="0%"></stop>
            <stop stop-color="#FF4D6F" offset="100%"></stop>
        </linearGradient>
    </defs>
    <g id="UX-University" stroke="none" stroke-width="1" fill="none" fill-rule="evenodd" transform="translate(-432.000000, -72.000000)">
        <g id="Group-4" transform="translate(426.000000, 47.000000)">
            <g id="Group-3">
                <path d="M72.1072362,16.3342847 L105.933529,105.964938 C106.460044,107.360061 105.755898,108.917855 104.360775,109.44437 C103.644765,109.714589 102.847718,109.668259 102.167839,109.316901 L69.8388092,92.6094081 C69.0985193,92.2268297 68.2230507,92.2075146 67.466608,92.5570711 L29.3351676,110.177832 C27.9815393,110.803351 26.3771229,110.213102 25.7516033,108.859474 C25.4210463,108.144146 25.4194897,107.320107 25.7473418,106.603535 L67.1259208,16.1642878 C67.7463218,14.8083058 69.3484968,14.2119997 70.7044787,14.8324008 C71.3517576,15.1285497 71.8559042,15.6683219 72.1072362,16.3342847 Z" id="Rectangle-2" fill="url(#linearGradient-1)" transform="translate(65.805366, 62.507244) rotate(-405.000000) translate(-65.805366, -62.507244) "></path>
                <path d="M70.4213549,21.9773541 C70.1399459,21.2418643 69.5738606,20.650914 68.8511394,20.3381678 C67.368566,19.6966074 65.6466154,20.3783831 65.0050551,21.8609565 L24.8071654,114.753729 C24.4802296,115.509241 24.486797,116.367546 24.8252556,117.117967 C25.4894276,118.590549 27.2216093,119.245895 28.6941917,118.581723 L71.1809398,99.4191238 C72.4136787,98.8631273 73.8367971,98.9231891 75.0183048,99.5810771 L99.8772406,113.42305 C100.63338,113.844084 101.537154,113.908649 102.345466,113.599377 C103.854233,113.022101 104.609355,111.33103 104.03208,109.822263 L70.4213549,21.9773541 Z" id="Rectangle-2-Copy-2" stroke="#A8C3D3" stroke-width="1.35" transform="translate(64.396395, 69.468976) rotate(-405.000000) translate(-64.396395, -69.468976) "></path>
            </g>
            <text id="ux-university" font-family="Arciform, Arciform Sans" font-size="36" font-weight="normal" line-spacing="27.6000004" fill="#FFFFFF">
                <tspan x="5" y="72">ux</tspan>
                <tspan x="5" y="99.6000004">university</tspan>
            </text>
        </g>
    </g>
</svg>